<?xml version="1.0" encoding="UTF-8"?>
<svg width="1247px" height="403px" viewBox="0 0 1247 403" version="1.1" xmlns="http://www.w3.org/2000/svg" xmlns:xlink="http://www.w3.org/1999/xlink" xmlns:sketch="http://www.bohemiancoding.com/sketch/ns">
    <!-- Generator: Sketch 3.4.2 (15855) - http://www.bohemiancoding.com/sketch -->
    <title>Artboard 1</title>
    <desc>Created with Sketch.</desc>
    <defs>
        <linearGradient x1="50%" y1="50%" x2="9.01226632%" y2="111.543687%" id="linearGradient-1">
            <stop stop-color="#DC2525" offset="0%"></stop>
            <stop stop-color="#630505" offset="100%"></stop>
        </linearGradient>
        <linearGradient x1="50%" y1="50%" x2="9.01226632%" y2="111.543687%" id="linearGradient-2">
            <stop stop-color="#FF7F50" offset="0%"></stop>
            <stop stop-color="#630505" offset="100%"></stop>
        </linearGradient>
        <linearGradient x1="106.997102%" y1="64.0758991%" x2="0%" y2="64.0758994%" id="linearGradient-3">
            <stop stop-color="#4CC0E0" offset="0%"></stop>
            <stop stop-color="#258BBD" offset="100%"></stop>
        </linearGradient>
    </defs>
    <g id="Page-1" stroke="none" stroke-width="1" fill="none" fill-rule="evenodd" sketch:type="MSPage">
        <g id="Artboard-1" sketch:type="MSArtboardGroup">
            <g id="CharityCode-+-Polygon-1-+-Polygon-1-+-Rectangle-1" sketch:type="MSLayerGroup" transform="translate(78.000000, 58.000000)">
                <text id="CharityCode" sketch:type="MSTextLayer" font-family="Overpass" font-size="144" font-weight="normal" fill="#000000">
                    <tspan x="288" y="180">CharityCode</tspan>
                </text>
                <g id="Polygon-1-+-Polygon-1-+-Rectangle-1" sketch:type="MSShapeGroup">
                    <polygon id="Polygon-1" stroke="#000000" stroke-width="5" fill="url(#linearGradient-1)" transform="translate(143.648535, 143.648535) rotate(-10.000000) translate(-143.648535, -143.648535) " points="143.648535 19.6485354 261.579543 105.330428 216.533907 243.966643 70.7631641 243.966643 25.7175274 105.330428 "></polygon>
                    <polygon id="Polygon-1" stroke="#000000" stroke-width="5" fill="url(#linearGradient-2)" transform="translate(145.674450, 138.918602) rotate(-10.000000) translate(-145.674450, -138.918602) " points="145.67445 21.8824059 256.982487 102.752428 214.4666 233.602873 76.8822998 233.602873 34.366413 102.752428 "></polygon>
                    <path d="M158.781664,171.023155 L99.5015685,171.023155 L99.5015685,111.74306 C99.5017442,111.683939 99.5015685,111.624777 99.5015685,111.565574 C99.5015685,95.3918728 112.612944,82.2804971 128.786646,82.2804971 C144.960347,82.2804971 158.071723,95.3918728 158.071723,111.565574 C158.071723,111.624777 158.071547,111.683939 158.071196,111.74306 L158.781664,111.74306 L158.781664,112.453527 C174.873691,112.549029 187.889256,125.623579 187.889256,141.738078 C187.889256,157.852576 174.873691,170.927127 158.781664,171.022628 Z" id="Rectangle-1" stroke="#979797" fill="url(#linearGradient-3)" transform="translate(143.695412, 126.651826) rotate(-55.000000) translate(-143.695412, -126.651826) "></path>
                </g>
            </g>
        </g>
    </g>
</svg>